<svg xmlns:xlink="http://www.w3.org/1999/xlink" width="48" xmlns="http://www.w3.org/2000/svg" height="48" id="screenshot-b8b47015-e278-802a-8002-52fe778ded17" viewBox="0 0 48 48" style="-webkit-print-color-adjust: exact;" fill="none" version="1.1"><g id="shape-b8b47015-e278-802a-8002-52fe778ded17"><defs><clipPath class="frame-clip-def frame-clip" id="frame-clip-b8b47015-e278-802a-8002-52fe778ded17-rumext-id-1"><rect rx="0" ry="0" x="0" y="0" width="48" height="48.00000000000182" transform="matrix(1.000000, 0.000000, 0.000000, 1.000000, 0.000000, 0.000000)" style="fill: rgb(255, 255, 255); fill-opacity: 1;"/></clipPath></defs><g clip-path="url(#frame-clip-b8b47015-e278-802a-8002-52fe778ded17-rumext-id-1)"><clipPath class="frame-clip-def frame-clip" id="frame-clip-b8b47015-e278-802a-8002-52fe778ded17-rumext-id-1"><rect rx="0" ry="0" x="0" y="0" width="48" height="48.00000000000182" transform="matrix(1.000000, 0.000000, 0.000000, 1.000000, 0.000000, 0.000000)" style="fill: rgb(255, 255, 255); fill-opacity: 1;"/></clipPath><g class="fills" id="fills-b8b47015-e278-802a-8002-52fe778ded17"><rect width="48" height="48.00000000000182" class="frame-background" x="0" transform="matrix(1.000000, 0.000000, 0.000000, 1.000000, 0.000000, 0.000000)" style="fill: rgb(255, 255, 255); fill-opacity: 1;" ry="0" rx="0" y="0"/></g><g class="frame-children"><g id="shape-b8b47015-e278-802a-8002-52fe273a151d"><g class="fills" id="fills-b8b47015-e278-802a-8002-52fe273a151d"><path fill="none" stroke-linecap="round" stroke-linejoin="round" rx="0" ry="0" d="M43.500,43.500L24.000,24.000M24.000,24.000L4.500,4.500M24.000,24.000L43.500,4.500M24.000,24.000L4.500,43.500" style="fill: none;"/></g><g id="strokes-b8b47015-e278-802a-8002-52fe273a151d" class="strokes"><g class="stroke-shape"><path stroke-linecap="round" stroke-linejoin="round" rx="0" ry="0" d="M43.500,43.500L24.000,24.000M24.000,24.000L4.500,4.500M24.000,24.000L43.500,4.500M24.000,24.000L4.500,43.500" style="fill: none; stroke-width: 7.64827; stroke: rgb(0, 0, 0);"/></g></g></g></g></g></g></svg>